<svg aria-hidden="true" style="width:0;height:0;position:absolute;overflow:hidden" xmlns="http://www.w3.org/2000/svg"><defs><symbol id="icon-thought" viewBox="0 0 28 32"><path d="M2.721 24.286c.031.792.146 1.659.313 2.417-1.672 3.323.917 4.096 4.221 3.503 3.706-.667 2.211-1.372 1.917 1.794H21.36l-.904-6.661c19.695-9.732-3.24-40.065-20.109-16.68.909.396 1.82.792 2.729 1.19-.57.948-.807 2.094-.849 3.359-.065 1.958.294 1.609-.615 3.469L.367 19.224c-.75 1.148-.263 2.13.646 2.148l1.609.06c.021.958.008 1.893.099 2.854zm10.914-14.89c.102-.102.227-.154.365-.154s.263.052.365.154l.552.552a3.44 3.44 0 0 1 .471-.255c.164-.078.331-.138.5-.198v-.849c0-.143.047-.263.148-.365s.221-.148.365-.148h1.065c.135 0 .255.047.359.148a.495.495 0 0 1 .154.365v.779c.177.044.352.096.518.159.169.063.326.138.477.221l.615-.604a.463.463 0 0 1 .354-.154.51.51 0 0 1 .365.154l.745.75c.102.102.154.227.154.365s-.052.263-.154.365l-.552.552c.096.148.177.307.255.471s.138.331.198.505h.849c.143 0 .263.047.365.148s.148.221.148.365v1.065a.497.497 0 0 1-.148.359.495.495 0 0 1-.365.154h-.779a4.315 4.315 0 0 1-.38 1.008l.604.604a.463.463 0 0 1 .154.354.51.51 0 0 1-.154.365l-.75.758c-.102.096-.227.143-.365.143s-.263-.047-.365-.143l-.552-.563c-.148.096-.307.177-.471.255s-.331.138-.5.198v.849c0 .143-.047.263-.148.365s-.221.148-.365.148h-1.065a.497.497 0 0 1-.359-.148.495.495 0 0 1-.154-.365v-.779a4.315 4.315 0 0 1-1.008-.38l-.604.604c-.096.102-.216.154-.359.154s-.263-.052-.359-.154l-.758-.75c-.096-.107-.143-.227-.143-.365s.047-.263.143-.365l.563-.552c-.096-.148-.177-.307-.255-.471s-.138-.331-.198-.5h-.849c-.143 0-.263-.047-.365-.148s-.148-.221-.148-.365v-1.065c0-.135.047-.255.148-.359a.495.495 0 0 1 .365-.154h.779c.044-.172.096-.341.159-.513s.138-.331.221-.484l-.604-.615a.463.463 0 0 1-.154-.354.51.51 0 0 1 .154-.365l.75-.745.005-.008zm-5.901 5.729c.068-.047.135-.063.211-.047a.267.267 0 0 1 .182.12l.25.352c.091-.039.182-.068.279-.096.096-.023.193-.044.292-.057l.081-.461c.016-.078.052-.138.115-.182s.135-.057.211-.047l.576.102a.298.298 0 0 1 .182.115.265.265 0 0 1 .047.211l-.073.422c.091.039.182.086.263.135.086.052.164.107.24.164l.388-.268a.243.243 0 0 1 .206-.047.273.273 0 0 1 .182.12l.336.477c.047.068.063.135.047.211a.267.267 0 0 1-.12.182l-.352.25c.039.091.068.182.096.279.023.096.044.193.057.292l.461.081c.078.016.138.052.182.115s.057.135.047.211l-.102.576a.298.298 0 0 1-.115.182.265.265 0 0 1-.211.047l-.422-.073a2.166 2.166 0 0 1-.135.263 2.983 2.983 0 0 1-.164.245l.268.383c.047.063.063.13.047.206a.273.273 0 0 1-.12.182l-.477.341a.295.295 0 0 1-.393-.065l-.25-.354a2.351 2.351 0 0 1-.279.096 2.842 2.842 0 0 1-.292.057l-.081.461c-.016.078-.052.138-.115.182s-.135.057-.211.047l-.576-.102a.298.298 0 0 1-.182-.115.265.265 0 0 1-.047-.211l.073-.422a2.166 2.166 0 0 1-.263-.135 2.983 2.983 0 0 1-.245-.164l-.385.268c-.063.047-.13.063-.211.047a.283.283 0 0 1-.182-.115l-.341-.477a.28.28 0 0 1-.044-.211.279.279 0 0 1 .109-.182l.359-.25a2.351 2.351 0 0 1-.096-.279 2.842 2.842 0 0 1-.057-.292l-.461-.081c-.076-.016-.138-.052-.182-.115s-.057-.135-.047-.211l.102-.576c.016-.073.052-.135.115-.182s.135-.063.211-.047l.422.073a2.238 2.238 0 0 1 .299-.503l-.268-.388a.243.243 0 0 1-.047-.206.273.273 0 0 1 .12-.182l.477-.336.013-.016zm1.662 1.469a1.103 1.103 0 0 0-.409.01 1.074 1.074 0 0 0-.359.159 1.062 1.062 0 0 0-.273.289.952.952 0 0 0-.148.385c-.023.138-.018.273.01.409.034.135.086.255.159.359a1.062 1.062 0 0 0 .672.421c.138.023.273.018.409-.01.135-.034.255-.086.359-.159.107-.078.198-.172.273-.289a.952.952 0 0 0 .148-.385 1.103 1.103 0 0 0-.01-.409 1.074 1.074 0 0 0-.159-.359 1.062 1.062 0 0 0-.672-.421zm7.672-5.3a2.01 2.01 0 0 0-.815.164c-.255.109-.477.26-.667.445a2.124 2.124 0 0 0-.609 1.482c0 .289.052.557.164.815.109.255.26.477.445.667a2.124 2.124 0 0 0 1.482.609c.289 0 .557-.052.815-.164.255-.109.477-.26.667-.445a2.124 2.124 0 0 0 .609-1.482 2.01 2.01 0 0 0-.164-.815 2.177 2.177 0 0 0-.445-.667 2.124 2.124 0 0 0-1.482-.609z"/></symbol><symbol id="icon-idea" viewBox="0 0 32 32"><path d="M16 0C9.924 0 5 4.924 5 11c0 4.031 3.688 8.303 5.031 12.055C12.034 28.65 11.812 32 16 32c4.25 0 3.965-3.334 5.969-8.922C23.316 19.318 27 15 27 11c0-6.076-4.926-11-11-11zm2.592 27.176-4.958.619a43.56 43.56 0 0 1-.598-1.893l-.009-.031 6.188-.773c-.088.295-.182.605-.264.883-.131.449-.248.839-.359 1.195zm-5.856-2.268A60 60 0 0 0 12.121 23h7.766c-.123.359-.246.719-.352 1.059l-6.799.849zM16 30c-1.013 0-1.479-.117-1.997-1.25l4.238-.531C17.627 29.873 17.18 30 16 30zm4.672-9h-9.333c-.498-1.08-1.096-2.16-1.686-3.217C8.348 15.448 7 13.033 7 11c0-4.963 4.037-9 9-9s9 4.037 9 9c0 2.018-1.35 4.446-2.656 6.795-.584 1.053-1.178 2.131-1.672 3.205zM16 5a.5.5 0 0 1 0 1c-2.757 0-5 2.243-5 5a.5.5 0 0 1-1 0c0-3.309 2.691-6 6-6z"/></symbol><symbol id="icon-edit" viewBox="0 0 32 32"><path d="M27 0a5 5 0 0 1 4 8l-2 2-7-7 2-2c.836-.628 1.874-1 3-1zM2 23l-2 9 9-2 18.5-18.5-7-7L2 23zm20.362-11.638-14 14-1.724-1.724 14-14 1.724 1.724z"/></symbol><symbol id="icon-shop" viewBox="0 0 32 32"><path d="M12 29a3 3 0 1 1-6 0 3 3 0 0 1 6 0zM32 29a3 3 0 1 1-6 0 3 3 0 0 1 6 0zM32 16V4H8a2 2 0 0 0-2-2H0v2h4l1.502 12.877A4 4 0 0 0 8 24h24v-2H8a2 2 0 0 1-2-2v-.02L32 16z"/></symbol><symbol id="icon-archieved" viewBox="0 0 32 32"><path d="M26 2H6L0 8v21a1 1 0 0 0 1 1h30a1 1 0 0 0 1-1V8l-6-6zM16 26 6 18h6v-6h8v6h6l-10 8zM4.828 6l2-2h18.343l2 2H4.828z"/></symbol><symbol id="icon-delete" viewBox="0 0 32 32"><path d="M6 32h20l2-22H4zM20 4V0h-8v4H2v6l2-2h24l2 2V4H20zm-2 0h-4V2h4v2z"/></symbol><symbol id="icon-close" viewBox="0 0 32 32"><path d="M31.708 25.708 22 16l9.708-9.708a1 1 0 0 0 0-1.414L27.122.292a1 1 0 0 0-1.414-.001L16 9.999 6.292.291a.998.998 0 0 0-1.414.001L.292 4.878a1 1 0 0 0 0 1.414L10 16 .292 25.708a.999.999 0 0 0 0 1.414l4.586 4.586a1 1 0 0 0 1.414 0L16 22l9.708 9.708a1 1 0 0 0 1.414 0l4.586-4.586a.999.999 0 0 0 0-1.414z"/></symbol></defs></svg>