<svg aria-hidden="true" style="position: absolute; width: 0; height: 0; overflow: hidden;" version="1.1" xmlns="http://www.w3.org/2000/svg" xmlns:xlink="http://www.w3.org/1999/xlink">
<defs>
<symbol id="icon-thought" viewBox="0 0 28 32">
<path d="M2.721 24.286v0c0.031 0.792 0.146 1.659 0.313 2.417-1.672 3.323 0.917 4.096 4.221 3.503 3.706-0.667 2.211-1.372 1.917 1.794h12.188l-0.904-6.661c19.695-9.732-3.24-40.065-20.109-16.68 0.909 0.396 1.82 0.792 2.729 1.19-0.57 0.948-0.807 2.094-0.849 3.359-0.065 1.958 0.294 1.609-0.615 3.469l-1.245 2.547c-0.75 1.148-0.263 2.13 0.646 2.148l1.609 0.060c0.021 0.958 0.008 1.893 0.099 2.854zM13.635 9.396c0.102-0.102 0.227-0.154 0.365-0.154s0.263 0.052 0.365 0.154l0.552 0.552c0.148-0.096 0.307-0.182 0.471-0.255 0.164-0.078 0.331-0.138 0.5-0.198v-0.849c0-0.143 0.047-0.263 0.148-0.365s0.221-0.148 0.365-0.148h1.065c0.135 0 0.255 0.047 0.359 0.148 0.102 0.102 0.154 0.221 0.154 0.365v0.779c0.177 0.044 0.352 0.096 0.518 0.159 0.169 0.063 0.326 0.138 0.477 0.221l0.615-0.604c0.096-0.102 0.211-0.154 0.354-0.154 0.138 0 0.26 0.052 0.365 0.154l0.745 0.75c0.102 0.102 0.154 0.227 0.154 0.365s-0.052 0.263-0.154 0.365l-0.552 0.552c0.096 0.148 0.177 0.307 0.255 0.471s0.138 0.331 0.198 0.505h0.849c0.143 0 0.263 0.047 0.365 0.148s0.148 0.221 0.148 0.365v1.065c0 0.135-0.047 0.255-0.148 0.359-0.102 0.102-0.221 0.154-0.365 0.154h-0.779c-0.044 0.177-0.096 0.352-0.159 0.518-0.063 0.169-0.138 0.331-0.221 0.49l0.604 0.604c0.102 0.096 0.154 0.211 0.154 0.354 0 0.138-0.052 0.26-0.154 0.365l-0.75 0.758c-0.102 0.096-0.227 0.143-0.365 0.143s-0.263-0.047-0.365-0.143l-0.552-0.563c-0.148 0.096-0.307 0.177-0.471 0.255s-0.331 0.138-0.5 0.198v0.849c0 0.143-0.047 0.263-0.148 0.365s-0.221 0.148-0.365 0.148h-1.065c-0.135 0-0.255-0.047-0.359-0.148-0.102-0.102-0.154-0.221-0.154-0.365v-0.779c-0.177-0.044-0.352-0.096-0.518-0.159-0.169-0.063-0.331-0.138-0.49-0.221l-0.604 0.604c-0.096 0.102-0.216 0.154-0.359 0.154s-0.263-0.052-0.359-0.154l-0.758-0.75c-0.096-0.107-0.143-0.227-0.143-0.365s0.047-0.263 0.143-0.365l0.563-0.552c-0.096-0.148-0.177-0.307-0.255-0.471s-0.138-0.331-0.198-0.5h-0.849c-0.143 0-0.263-0.047-0.365-0.148s-0.148-0.221-0.148-0.365v-1.065c0-0.135 0.047-0.255 0.148-0.359 0.102-0.102 0.221-0.154 0.365-0.154h0.779c0.044-0.172 0.096-0.341 0.159-0.513s0.138-0.331 0.221-0.484l-0.604-0.615c-0.102-0.096-0.154-0.211-0.154-0.354 0-0.138 0.052-0.26 0.154-0.365l0.75-0.745 0.005-0.008zM7.734 15.125c0.068-0.047 0.135-0.063 0.211-0.047 0.078 0.016 0.138 0.052 0.182 0.12l0.25 0.352c0.091-0.039 0.182-0.068 0.279-0.096 0.096-0.023 0.193-0.044 0.292-0.057l0.081-0.461c0.016-0.078 0.052-0.138 0.115-0.182s0.135-0.057 0.211-0.047l0.576 0.102c0.073 0.016 0.135 0.052 0.182 0.115 0.044 0.063 0.063 0.135 0.047 0.211l-0.073 0.422c0.091 0.039 0.182 0.086 0.263 0.135 0.086 0.052 0.164 0.107 0.24 0.164l0.388-0.268c0.063-0.047 0.13-0.063 0.206-0.047 0.078 0.016 0.135 0.052 0.182 0.12l0.336 0.477c0.047 0.068 0.063 0.135 0.047 0.211-0.016 0.078-0.052 0.138-0.12 0.182l-0.352 0.25c0.039 0.091 0.068 0.182 0.096 0.279 0.023 0.096 0.044 0.193 0.057 0.292l0.461 0.081c0.078 0.016 0.138 0.052 0.182 0.115s0.057 0.135 0.047 0.211l-0.102 0.576c-0.016 0.073-0.052 0.135-0.115 0.182-0.063 0.044-0.135 0.063-0.211 0.047l-0.422-0.073c-0.039 0.091-0.086 0.182-0.135 0.263-0.052 0.086-0.107 0.169-0.164 0.245l0.268 0.383c0.047 0.063 0.063 0.13 0.047 0.206-0.016 0.078-0.052 0.135-0.12 0.182l-0.477 0.341c-0.068 0.044-0.135 0.057-0.211 0.044-0.078-0.016-0.138-0.052-0.182-0.109l-0.25-0.354c-0.091 0.039-0.182 0.068-0.279 0.096-0.096 0.023-0.193 0.044-0.292 0.057l-0.081 0.461c-0.016 0.078-0.052 0.138-0.115 0.182s-0.135 0.057-0.211 0.047l-0.576-0.102c-0.073-0.016-0.135-0.052-0.182-0.115-0.044-0.063-0.063-0.135-0.047-0.211l0.073-0.422c-0.091-0.039-0.182-0.086-0.263-0.135-0.086-0.052-0.169-0.107-0.245-0.164l-0.385 0.268c-0.063 0.047-0.13 0.063-0.211 0.047-0.076-0.016-0.138-0.052-0.182-0.115l-0.341-0.477c-0.044-0.068-0.057-0.135-0.044-0.211 0.016-0.076 0.047-0.138 0.109-0.182l0.359-0.25c-0.039-0.091-0.068-0.182-0.096-0.279-0.023-0.096-0.044-0.193-0.057-0.292l-0.461-0.081c-0.076-0.016-0.138-0.052-0.182-0.115s-0.057-0.135-0.047-0.211l0.102-0.576c0.016-0.073 0.052-0.135 0.115-0.182s0.135-0.063 0.211-0.047l0.422 0.073c0.039-0.091 0.081-0.177 0.135-0.263 0.052-0.086 0.107-0.169 0.164-0.24l-0.268-0.388c-0.047-0.063-0.063-0.13-0.047-0.206 0.016-0.078 0.052-0.135 0.12-0.182l0.477-0.336 0.013-0.016zM9.396 16.594c-0.138-0.023-0.273-0.018-0.409 0.010-0.135 0.034-0.255 0.086-0.359 0.159-0.107 0.078-0.198 0.172-0.273 0.289-0.078 0.115-0.125 0.245-0.148 0.385-0.023 0.138-0.018 0.273 0.010 0.409 0.034 0.135 0.086 0.255 0.159 0.359 0.078 0.107 0.172 0.198 0.289 0.273 0.115 0.078 0.245 0.125 0.383 0.148s0.273 0.018 0.409-0.010c0.135-0.034 0.255-0.086 0.359-0.159 0.107-0.078 0.198-0.172 0.273-0.289 0.078-0.115 0.125-0.245 0.148-0.385 0.023-0.138 0.018-0.273-0.010-0.409-0.034-0.135-0.086-0.255-0.159-0.359-0.078-0.107-0.172-0.198-0.289-0.273-0.115-0.076-0.245-0.122-0.383-0.148v0zM17.068 11.294c-0.289 0-0.557 0.052-0.815 0.164-0.255 0.109-0.477 0.26-0.667 0.445-0.188 0.188-0.336 0.414-0.445 0.667-0.109 0.26-0.164 0.529-0.164 0.815 0 0.289 0.052 0.557 0.164 0.815 0.109 0.255 0.26 0.477 0.445 0.667 0.188 0.188 0.414 0.336 0.667 0.445 0.255 0.109 0.529 0.164 0.815 0.164 0.289 0 0.557-0.052 0.815-0.164 0.255-0.109 0.477-0.26 0.667-0.445 0.188-0.188 0.336-0.414 0.445-0.667 0.109-0.255 0.164-0.529 0.164-0.815 0-0.289-0.052-0.557-0.164-0.815-0.109-0.255-0.26-0.477-0.445-0.667-0.188-0.188-0.414-0.336-0.667-0.445-0.258-0.112-0.526-0.164-0.815-0.164v0z"></path>
</symbol>
<symbol id="icon-idea" viewBox="0 0 32 32">
<path d="M16 0c-6.076 0-11 4.924-11 11 0 4.031 3.688 8.303 5.031 12.055 2.003 5.595 1.781 8.945 5.969 8.945 4.25 0 3.965-3.334 5.969-8.922 1.347-3.76 5.031-8.078 5.031-12.078 0-6.076-4.926-11-11-11zM18.592 27.176l-4.958 0.619c-0.177-0.512-0.367-1.111-0.598-1.893-0.003-0.010-0.007-0.021-0.009-0.031l6.188-0.773c-0.088 0.295-0.182 0.605-0.264 0.883-0.131 0.449-0.248 0.839-0.359 1.195zM12.736 24.908c-0.182-0.602-0.387-1.236-0.615-1.908h7.766c-0.123 0.359-0.246 0.719-0.352 1.059l-6.799 0.849zM16 30c-1.013 0-1.479-0.117-1.997-1.25l4.238-0.531c-0.614 1.654-1.061 1.781-2.241 1.781zM20.672 21h-9.333c-0.498-1.080-1.096-2.16-1.686-3.217-1.305-2.335-2.653-4.75-2.653-6.783 0-4.963 4.037-9 9-9s9 4.037 9 9c0 2.018-1.35 4.446-2.656 6.795-0.584 1.053-1.178 2.131-1.672 3.205zM16 5c0.275 0 0.5 0.224 0.5 0.5s-0.224 0.5-0.5 0.5c-2.757 0-5 2.243-5 5 0 0.276-0.224 0.5-0.5 0.5s-0.5-0.224-0.5-0.5c0-3.309 2.691-6 6-6z"></path>
</symbol>
<symbol id="icon-edit" viewBox="0 0 32 32">
<path d="M27 0c2.761 0 5 2.239 5 5 0 1.126-0.372 2.164-1 3l-2 2-7-7 2-2c0.836-0.628 1.874-1 3-1zM2 23l-2 9 9-2 18.5-18.5-7-7-18.5 18.5zM22.362 11.362l-14 14-1.724-1.724 14-14 1.724 1.724z"></path>
</symbol>
<symbol id="icon-shop" viewBox="0 0 32 32">
<path d="M12 29c0 1.657-1.343 3-3 3s-3-1.343-3-3c0-1.657 1.343-3 3-3s3 1.343 3 3z"></path>
<path d="M32 29c0 1.657-1.343 3-3 3s-3-1.343-3-3c0-1.657 1.343-3 3-3s3 1.343 3 3z"></path>
<path d="M32 16v-12h-24c0-1.105-0.895-2-2-2h-6v2h4l1.502 12.877c-0.915 0.733-1.502 1.859-1.502 3.123 0 2.209 1.791 4 4 4h24v-2h-24c-1.105 0-2-0.895-2-2 0-0.007 0-0.014 0-0.020l26-3.98z"></path>
</symbol>
<symbol id="icon-archieved" viewBox="0 0 32 32">
<path d="M26 2h-20l-6 6v21c0 0.552 0.448 1 1 1h30c0.552 0 1-0.448 1-1v-21l-6-6zM16 26l-10-8h6v-6h8v6h6l-10 8zM4.828 6l2-2h18.343l2 2h-22.343z"></path>
</symbol>
<symbol id="icon-delete" viewBox="0 0 32 32">
<path d="M6 32h20l2-22h-24zM20 4v-4h-8v4h-10v6l2-2h24l2 2v-6h-10zM18 4h-4v-2h4v2z"></path>
</symbol>
</defs>
</svg>
